<?xml version="1.0" encoding="utf-8"?><!-- Uploaded to: SVG Repo, www.svgrepo.com, Generator: SVG Repo Mixer Tools -->
<svg fill="#000000" width="800px" height="800px" viewBox="0 0 24 24" id="clipboard-checklist-6" data-name="Flat Color" xmlns="http://www.w3.org/2000/svg" class="icon flat-color"><path id="primary" d="M16,7v9a1,1,0,0,1-1,1,2,2,0,0,0-2,2,2.2,2.2,0,0,0,.61,1.44,1,1,0,0,1,.17.56,1,1,0,0,1-1,1H4a2,2,0,0,1-2-2V7A2,2,0,0,1,4,5H14A2,2,0,0,1,16,7Z" style="fill: rgb(0, 0, 0);"></path><path id="secondary" d="M10,18H6a1,1,0,0,1,0-2h4a1,1,0,0,1,0,2Zm3-5a1,1,0,0,0-1-1H6a1,1,0,0,0,0,2h6A1,1,0,0,0,13,13ZM11,4A2,2,0,0,0,7,4H6A1,1,0,0,0,5,5V7A1,1,0,0,0,6,8h6a1,1,0,0,0,1-1V5a1,1,0,0,0-1-1Zm6.71,17.71,4-4a1,1,0,0,0-1.42-1.42L17,19.59l-1.29-1.3a1,1,0,0,0-1.42,1.42l2,2a1,1,0,0,0,1.42,0Z" style="fill: rgb(44, 169, 188);"></path></svg>